<svg width="92" height="36" viewBox="0 0 92 36" fill="none" xmlns="http://www.w3.org/2000/svg">
<path d="M2.42205 24H91L88.5779 31H0L2.42205 24Z" fill="#4ECCA3"/>
<path d="M9.92 22.88H15.296L14.744 26H5.264L8.24 9.152H12.344L9.92 22.88ZM21.3815 11.216C20.7415 11.216 20.2295 11.048 19.8455 10.712C19.4775 10.36 19.2935 9.92 19.2935 9.392C19.2935 8.672 19.5735 8.056 20.1335 7.544C20.6935 7.032 21.3735 6.776 22.1735 6.776C22.8135 6.776 23.3175 6.952 23.6855 7.304C24.0535 7.64 24.2375 8.08 24.2375 8.624C24.2375 9.328 23.9575 9.936 23.3975 10.448C22.8375 10.96 22.1655 11.216 21.3815 11.216ZM23.1575 12.608L20.8055 26H16.7015L19.0535 12.608H23.1575ZM34.3156 12.464C35.6596 12.464 36.7156 12.84 37.4836 13.592C38.2516 14.344 38.6356 15.392 38.6356 16.736C38.6356 17.184 38.5876 17.664 38.4916 18.176L37.0996 26H33.0196L34.3156 18.728C34.3636 18.456 34.3876 18.216 34.3876 18.008C34.3876 17.336 34.1956 16.816 33.8116 16.448C33.4436 16.08 32.9236 15.896 32.2516 15.896C31.4516 15.896 30.7796 16.144 30.2356 16.64C29.6916 17.136 29.3396 17.832 29.1796 18.728V18.608L27.8836 26H23.7796L26.1316 12.608H30.2356L29.9236 14.408C30.4516 13.816 31.0916 13.344 31.8436 12.992C32.6116 12.64 33.4356 12.464 34.3156 12.464ZM48.7835 19.328L53.2235 26H48.1355L45.0395 20.408L44.0555 26H39.9515L43.0955 8.24H47.1995L45.4715 18.032L50.4635 12.608H55.5275L48.7835 19.328ZM76.8434 9.152L73.8674 26H69.7634L71.5634 15.896L65.9954 26H62.6834L60.6674 15.848L58.8914 26H54.7874L57.7634 9.152H62.6114L65.2994 20.816L72.0194 9.152H76.8434ZM85.1707 12.416C86.8987 12.416 88.2667 12.888 89.2747 13.832C90.2987 14.76 90.8107 16.032 90.8107 17.648C90.8107 18.176 90.7707 18.648 90.6907 19.064C90.6267 19.432 90.5307 19.824 90.4027 20.24H81.1147C81.0987 20.336 81.0907 20.488 81.0907 20.696C81.0907 21.4 81.2827 21.936 81.6667 22.304C82.0507 22.672 82.5627 22.856 83.2027 22.856C84.2267 22.856 85.0107 22.424 85.5547 21.56H89.9227C89.3467 22.92 88.4107 24.032 87.1147 24.896C85.8187 25.76 84.3627 26.192 82.7467 26.192C81.0187 26.192 79.6347 25.712 78.5947 24.752C77.5707 23.792 77.0587 22.488 77.0587 20.84C77.0587 20.344 77.1067 19.832 77.2027 19.304C77.4427 17.912 77.9387 16.696 78.6907 15.656C79.4427 14.616 80.3787 13.816 81.4987 13.256C82.6187 12.696 83.8427 12.416 85.1707 12.416ZM86.6587 18.152C86.6907 17.928 86.7067 17.776 86.7067 17.696C86.7067 17.056 86.5067 16.568 86.1067 16.232C85.7067 15.88 85.1787 15.704 84.5227 15.704C83.8187 15.704 83.1947 15.92 82.6507 16.352C82.1227 16.768 81.7387 17.368 81.4987 18.152H86.6587Z" fill="white"/>
</svg>
