<svg width="352" height="96" viewBox="0 0 352 96" fill="none" xmlns="http://www.w3.org/2000/svg">
<path d="M9.36882 66H352L342.631 89H0L9.36882 66Z" fill="#4ECCA3"/>
<path d="M27.12 61.68H41.456L39.984 70H14.704L22.64 25.072H33.584L27.12 61.68ZM57.684 30.576C55.9773 30.576 54.612 30.128 53.588 29.232C52.6067 28.2933 52.116 27.12 52.116 25.712C52.116 23.792 52.8627 22.1493 54.356 20.784C55.8493 19.4187 57.6627 18.736 59.796 18.736C61.5027 18.736 62.8467 19.2053 63.828 20.144C64.8093 21.04 65.3 22.2133 65.3 23.664C65.3 25.5413 64.5533 27.1627 63.06 28.528C61.5667 29.8933 59.7747 30.576 57.684 30.576ZM62.42 34.288L56.148 70H45.204L51.476 34.288H62.42ZM92.175 33.904C95.759 33.904 98.575 34.9067 100.623 36.912C102.671 38.9173 103.695 41.712 103.695 45.296C103.695 46.4907 103.567 47.7707 103.311 49.136L99.599 70H88.719L92.175 50.608C92.303 49.8827 92.367 49.2427 92.367 48.688C92.367 46.896 91.855 45.5093 90.831 44.528C89.8497 43.5467 88.463 43.056 86.671 43.056C84.5377 43.056 82.7457 43.7173 81.295 45.04C79.8443 46.3627 78.9057 48.2187 78.479 50.608V50.288L75.023 70H64.079L70.351 34.288H81.295L80.463 39.088C81.871 37.5093 83.5777 36.2507 85.583 35.312C87.631 34.3733 89.8283 33.904 92.175 33.904ZM130.756 52.208L142.596 70H129.028L120.772 55.088L118.148 70H107.204L115.588 22.64H126.532L121.924 48.752L135.236 34.288H148.74L130.756 52.208ZM205.583 25.072L197.647 70H186.703L191.503 43.056L176.655 70H167.823L162.447 42.928L157.711 70H146.767L154.703 25.072H167.631L174.799 56.176L192.719 25.072H205.583ZM217.997 30.576C216.29 30.576 214.925 30.128 213.901 29.232C212.919 28.2933 212.429 27.12 212.429 25.712C212.429 23.792 213.175 22.1493 214.669 20.784C216.162 19.4187 217.975 18.736 220.109 18.736C221.815 18.736 223.159 19.2053 224.141 20.144C225.122 21.04 225.613 22.2133 225.613 23.664C225.613 25.5413 224.866 27.1627 223.373 28.528C221.879 29.8933 220.087 30.576 217.997 30.576ZM222.733 34.288L216.461 70H205.517L211.789 34.288H222.733ZM252.488 33.904C256.072 33.904 258.888 34.9067 260.936 36.912C262.984 38.9173 264.008 41.712 264.008 45.296C264.008 46.4907 263.88 47.7707 263.624 49.136L259.912 70H249.032L252.488 50.608C252.616 49.8827 252.68 49.2427 252.68 48.688C252.68 46.896 252.168 45.5093 251.144 44.528C250.162 43.5467 248.776 43.056 246.984 43.056C244.85 43.056 243.058 43.7173 241.608 45.04C240.157 46.3627 239.218 48.2187 238.792 50.608V50.288L235.336 70H224.392L230.664 34.288H241.608L240.776 39.088C242.184 37.5093 243.89 36.2507 245.896 35.312C247.944 34.3733 250.141 33.904 252.488 33.904ZM268.541 52.08C269.181 48.4107 270.439 45.1893 272.317 42.416C274.194 39.6427 276.455 37.5093 279.101 36.016C281.746 34.5227 284.541 33.776 287.485 33.776C289.831 33.776 291.879 34.2667 293.629 35.248C295.421 36.2293 296.722 37.552 297.533 39.216L300.477 22.64H311.421L303.037 70H292.093L292.989 64.88C291.623 66.5867 289.917 67.952 287.869 68.976C285.821 70 283.538 70.512 281.021 70.512C278.503 70.512 276.263 69.936 274.301 68.784C272.381 67.632 270.866 65.9893 269.757 63.856C268.69 61.7227 268.157 59.2267 268.157 56.368C268.157 55.0453 268.285 53.616 268.541 52.08ZM295.293 52.144C295.421 51.376 295.485 50.672 295.485 50.032C295.485 47.9413 294.866 46.2987 293.629 45.104C292.434 43.9093 290.898 43.312 289.021 43.312C286.845 43.312 284.861 44.1013 283.069 45.68C281.277 47.216 280.146 49.3493 279.677 52.08C279.549 52.848 279.485 53.552 279.485 54.192C279.485 56.2827 280.082 57.9467 281.277 59.184C282.514 60.3787 284.05 60.976 285.885 60.976C288.061 60.976 290.045 60.1867 291.837 58.608C293.629 57.0293 294.781 54.8747 295.293 52.144ZM325.802 70.512C322.986 70.512 320.447 70.064 318.186 69.168C315.967 68.272 314.218 67.0347 312.938 65.456C311.658 63.8347 311.018 61.9787 311.018 59.888C311.018 59.5893 311.061 59.056 311.146 58.288H321.706C321.621 59.6107 322.005 60.6773 322.858 61.488C323.754 62.256 325.013 62.64 326.634 62.64C327.999 62.64 329.13 62.384 330.026 61.872C330.922 61.36 331.37 60.6347 331.37 59.696C331.37 58.8 330.879 58.096 329.898 57.584C328.959 57.0293 327.381 56.368 325.162 55.6C322.858 54.832 320.917 54.0853 319.338 53.36C317.802 52.592 316.479 51.504 315.37 50.096C314.261 48.688 313.706 46.9173 313.706 44.784C313.706 42.6933 314.325 40.816 315.562 39.152C316.799 37.4453 318.527 36.1227 320.746 35.184C323.007 34.2453 325.61 33.776 328.554 33.776C331.498 33.776 334.058 34.2667 336.234 35.248C338.41 36.1867 340.095 37.5093 341.29 39.216C342.485 40.9227 343.082 42.8427 343.082 44.976L343.018 45.936H333.098C333.183 44.656 332.799 43.632 331.946 42.864C331.093 42.096 329.877 41.712 328.298 41.712C327.061 41.712 326.037 41.968 325.226 42.48C324.458 42.992 324.074 43.696 324.074 44.592C324.074 45.5307 324.586 46.32 325.61 46.96C326.677 47.5573 328.319 48.24 330.538 49.008C332.842 49.776 334.741 50.544 336.234 51.312C337.77 52.0373 339.071 53.0827 340.138 54.448C341.247 55.7707 341.802 57.4347 341.802 59.44C341.802 61.744 341.098 63.728 339.69 65.392C338.325 67.056 336.426 68.336 333.994 69.232C331.605 70.0853 328.874 70.512 325.802 70.512Z" fill="white"/>
</svg>
