<svg width="50" height="50" viewBox="0 0 50 50" fill="none" xmlns="http://www.w3.org/2000/svg">
<path d="M24.9998 7.8125C22.9278 7.8125 20.9407 8.6356 19.4756 10.1007C18.0104 11.5659 17.1873 13.553 17.1873 15.625C17.1873 17.697 18.0104 19.6841 19.4756 21.1493C20.9407 22.6144 22.9278 23.4375 24.9998 23.4375C27.0718 23.4375 29.059 22.6144 30.5241 21.1493C31.9892 19.6841 32.8123 17.697 32.8123 15.625C32.8123 13.553 31.9892 11.5659 30.5241 10.1007C29.059 8.6356 27.0718 7.8125 24.9998 7.8125ZM16.6665 27.6042C14.5945 27.6042 12.6074 28.4273 11.1422 29.8924C9.6771 31.3575 8.854 33.3447 8.854 35.4167V37.8917C8.854 39.4625 9.9915 40.8 11.5415 41.0521C20.454 42.5083 29.5457 42.5083 38.4582 41.0521C39.2083 40.9299 39.8906 40.545 40.3829 39.966C40.8753 39.387 41.1457 38.6517 41.1457 37.8917V35.4167C41.1457 33.3447 40.3226 31.3575 38.8574 29.8924C37.3923 28.4273 35.4052 27.6042 33.3332 27.6042H32.6248C32.2394 27.6042 31.8561 27.6667 31.4915 27.7833L29.6873 28.3729C26.6414 29.3672 23.3583 29.3672 20.3123 28.3729L18.5082 27.7833C18.1429 27.6645 17.7611 27.604 17.3769 27.6042H16.6665Z" fill="white"/>
</svg>
