<svg width="41" height="41" viewBox="0 0 41 41" fill="none" xmlns="http://www.w3.org/2000/svg">
<path d="M20.5 0C17.8692 0 15.3462 0.98297 13.486 2.73267C11.6257 4.48237 10.5806 6.85547 10.5806 9.32991C10.5806 11.8044 11.6257 14.1775 13.486 15.9272C15.3462 17.6769 17.8692 18.6598 20.5 18.6598C23.1308 18.6598 25.6538 17.6769 27.514 15.9272C29.3743 14.1775 30.4194 11.8044 30.4194 9.32991C30.4194 6.85547 29.3743 4.48237 27.514 2.73267C25.6538 0.98297 23.1308 0 20.5 0ZM9.91936 23.6358C7.28858 23.6358 4.76555 24.6188 2.90531 26.3685C1.04507 28.1182 0 30.4913 0 32.9657V35.9214C0 37.7973 1.44426 39.3946 3.41226 39.6957C14.7283 41.4348 26.2717 41.4348 37.5877 39.6957C38.5402 39.5498 39.4065 39.09 40.0316 38.3986C40.6567 37.7071 41 36.8291 41 35.9214V32.9657C41 30.4913 39.9549 28.1182 38.0947 26.3685C36.2345 24.6188 33.7114 23.6358 31.0806 23.6358H30.1813C29.6919 23.6358 29.2052 23.7104 28.7423 23.8498L26.4516 24.5538C22.5843 25.7412 18.4157 25.7412 14.5484 24.5538L12.2577 23.8498C11.7939 23.7078 11.3091 23.6356 10.8214 23.6358H9.91936Z" fill="white"/>
</svg>
