<svg width="34" height="34" viewBox="0 0 34 34" fill="none" xmlns="http://www.w3.org/2000/svg">
<g id="basil:user-solid">
<path id="Vector" d="M16.7946 5.20825C15.4133 5.20825 14.0886 5.75697 13.1119 6.7337C12.1351 7.71043 11.5864 9.03515 11.5864 10.4165C11.5864 11.7978 12.1351 13.1225 13.1119 14.0992C14.0886 15.0759 15.4133 15.6247 16.7946 15.6247C18.1759 15.6247 19.5007 15.0759 20.4774 14.0992C21.4541 13.1225 22.0028 11.7978 22.0028 10.4165C22.0028 9.03515 21.4541 7.71043 20.4774 6.7337C19.5007 5.75697 18.1759 5.20825 16.7946 5.20825ZM11.2392 18.4024C9.85791 18.4024 8.53318 18.9511 7.55645 19.9278C6.57973 20.9045 6.03101 22.2293 6.03101 23.6106V25.2605C6.03101 26.3077 6.78932 27.1994 7.82263 27.3674C13.7641 28.3382 19.8251 28.3382 25.7666 27.3674C26.2667 27.286 26.7215 27.0293 27.0498 26.6433C27.378 26.2574 27.5582 25.7672 27.5582 25.2605V23.6106C27.5582 22.2293 27.0095 20.9045 26.0328 19.9278C25.0561 18.9511 23.7313 18.4024 22.35 18.4024H21.8778C21.6209 18.4024 21.3653 18.444 21.1223 18.5218L19.9195 18.9149C17.889 19.5777 15.7003 19.5777 13.6697 18.9149L12.467 18.5218C12.2234 18.4426 11.9689 18.4022 11.7128 18.4024H11.2392Z" fill="#4ECCA3"/>
</g>
</svg>
